<svg xmlns="http://www.w3.org/2000/svg" viewBox="0 0 32 32">
    <path d="M15.9.476a2.14 2.14 0 0 0-.823.218L4.76 6.037A2.106 2.106 0 0 0 3.667 7.66l-1.78 10.12a2.106 2.106 0 0 0 .572 1.841l7.375 7.375a2.106 2.106 0 0 0 1.84.572l10.12-1.78a2.106 2.106 0 0 0 1.624-1.094l5.343-10.317a2.14 2.14 0 0 0 .218-.823L27.463 3.12a2.106 2.106 0 0 0-1.094-1.624L15.9.476z" fill="#326ce5"/>
    <path d="M16.002 4.542c-.384.027-.675.356-.655.74.018.385.322.934.71.91.385-.023.934-.322.91-.71-.023-.385-.322-.934-.71-.91-.085.005-.168.017-.255.035zm4.428 1.263c-.384.028-.675.357-.655.74.02.385.322.934.71.91.385-.023.934-.322.91-.71-.023-.385-.322-.934-.71-.91-.085.005-.168.017-.255.035zM11.156 6.77c-.384.028-.675.357-.655.74.02.385.322.934.71.91.385-.023.934-.322.91-.71-.023-.385-.322-.934-.71-.91-.085.005-.168.017-.255.035zm-4.43 1.263c-.383.028-.674.357-.654.74.02.385.322.934.71.91.385-.023.934-.322.91-.71-.023-.385-.322-.934-.71-.91-.085.005-.168.017-.255.035zm13.853 1.954c-.383.028-.674.357-.654.74.02.385.322.934.71.91.385-.023.934-.322.91-.71-.023-.385-.322-.934-.71-.91-.085.005-.168.017-.255.035zM6.772 11.4c-.383.028-.674.357-.654.74.02.385.322.934.71.91.385-.023.934-.322.91-.71-.023-.385-.322-.934-.71-.91-.085.005-.168.017-.255.035zm18.54.637c-.383.028-.674.357-.654.74.02.385.322.934.71.91.385-.023.934-.322.91-.71-.023-.385-.322-.934-.71-.91-.085.005-.168.017-.255.035zM4.855 13.87c-.383.028-.674.357-.654.74.02.385.322.934.71.91.385-.023.934-.322.91-.71-.023-.385-.322-.934-.71-.91-.085.005-.168.017-.255.035zm22.782.637c-.383.028-.674.357-.654.74.02.385.322.934.71.91.385-.023.934-.322.91-.71-.023-.385-.322-.934-.71-.91-.085.005-.168.017-.255.035zM3.91 16.34c-.383.028-.674.357-.654.74.02.385.322.934.71.91.385-.023.934-.322.91-.71-.023-.385-.322-.934-.71-.91-.085.005-.168.017-.255.035zm24.673.637c-.383.028-.674.357-.654.74.02.385.322.934.71.91.385-.023.934-.322.91-.71-.023-.385-.322-.934-.71-.91-.085.005-.168.017-.255.035zM4.855 18.81c-.383.028-.674.357-.654.74.02.385.322.934.71.91.385-.023.934-.322.91-.71-.023-.385-.322-.934-.71-.91-.085.005-.168.017-.255.035zm22.782.637c-.383.028-.674.357-.654.74.02.385.322.934.71.91.385-.023.934-.322.91-.71-.023-.385-.322-.934-.71-.91-.085.005-.168.017-.255.035zM6.772 21.28c-.383.028-.674.357-.654.74.02.385.322.934.71.91.385-.023.934-.322.91-.71-.023-.385-.322-.934-.71-.91-.085.005-.168.017-.255.035zm18.54.637c-.383.028-.674.357-.654.74.02.385.322.934.71.91.385-.023.934-.322.91-.71-.023-.385-.322-.934-.71-.91-.085.005-.168.017-.255.035zM11.156 23.75c-.384.028-.675.357-.655.74.02.385.322.934.71.91.385-.023.934-.322.91-.71-.023-.385-.322-.934-.71-.91-.085.005-.168.017-.255.035zm4.43 1.263c-.384.028-.675.357-.655.74.02.385.322.934.71.91.385-.023.934-.322.91-.71-.023-.385-.322-.934-.71-.91-.085.005-.168.017-.255.035zm4.428 1.263c-.384.028-.675.357-.655.74.02.385.322.934.71.91.385-.023.934-.322.91-.71-.023-.385-.322-.934-.71-.91-.085.005-.168.017-.255.035z" fill="#fff"/>
</svg> 